<svg width="280" height="51" viewBox="0 0 280 51" fill="none" xmlns="http://www.w3.org/2000/svg">
<path d="M36 8.5L39.7333 0H0V41.7031C0 48.9281 4.62222 50.9115 6.93333 51H15.2L19.4667 42.5H8.53333V8.5H36Z" fill="white"/>
<path d="M42.1333 8.5L46.4 0H48V8.5H42.1333Z" fill="white"/>
<path d="M14.4 36.125V14.6094H48V22.3125H44L30.1333 51H22.1333L36 22.3125H22.1333V36.125H14.4Z" fill="white"/>
<path d="M39.7333 45.9531L46.4 30.5469H48V51H39.7333V45.9531Z" fill="white"/>
<path d="M92.0845 16.2769H83.3359V40H76.3091V16.2769H67.7207V10.8516H92.0845V16.2769ZM119.191 26.0264C119.191 28.8691 118.664 31.3849 117.609 33.5737C116.555 35.7625 115.054 37.4508 113.105 38.6387C111.17 39.8132 108.961 40.4004 106.479 40.4004C103.996 40.4004 101.794 39.8332 99.8721 38.6987C97.9502 37.5509 96.4487 35.916 95.3677 33.7939C94.3 31.6719 93.7394 29.2362 93.686 26.4868V24.8452C93.686 21.9891 94.2065 19.4733 95.2476 17.2979C96.3019 15.109 97.8034 13.4207 99.752 12.2329C101.714 11.0451 103.943 10.4512 106.438 10.4512C108.908 10.4512 111.11 11.0384 113.045 12.2129C114.98 13.3874 116.482 15.0623 117.549 17.2378C118.63 19.3999 119.178 21.8823 119.191 24.6851V26.0264ZM112.044 24.8052C112.044 21.909 111.557 19.7135 110.583 18.2188C109.622 16.7106 108.24 15.9565 106.438 15.9565C102.915 15.9565 101.053 18.5991 100.853 23.8843L100.833 26.0264C100.833 28.8825 101.307 31.078 102.254 32.6128C103.202 34.1476 104.61 34.915 106.479 34.915C108.254 34.915 109.622 34.161 110.583 32.6528C111.543 31.1447 112.031 28.9759 112.044 26.1465V24.8052ZM132.724 29.1494L129.841 32.3125V40H122.814V10.8516H129.841V23.7041L132.284 20.0005L138.57 10.8516H147.258L137.409 23.7441L147.258 40H138.93L132.724 29.1494ZM173.083 26.0264C173.083 28.8691 172.556 31.3849 171.502 33.5737C170.448 35.7625 168.946 37.4508 166.998 38.6387C165.062 39.8132 162.854 40.4004 160.371 40.4004C157.889 40.4004 155.687 39.8332 153.765 38.6987C151.843 37.5509 150.341 35.916 149.26 33.7939C148.193 31.6719 147.632 29.2362 147.579 26.4868V24.8452C147.579 21.9891 148.099 19.4733 149.14 17.2979C150.194 15.109 151.696 13.4207 153.645 12.2329C155.606 11.0451 157.835 10.4512 160.331 10.4512C162.8 10.4512 165.002 11.0384 166.938 12.2129C168.873 13.3874 170.374 15.0623 171.442 17.2378C172.523 19.3999 173.07 21.8823 173.083 24.6851V26.0264ZM165.937 24.8052C165.937 21.909 165.449 19.7135 164.475 18.2188C163.514 16.7106 162.133 15.9565 160.331 15.9565C156.808 15.9565 154.946 18.5991 154.746 23.8843L154.726 26.0264C154.726 28.8825 155.199 31.078 156.147 32.6128C157.095 34.1476 158.503 34.915 160.371 34.915C162.146 34.915 163.514 34.161 164.475 32.6528C165.436 31.1447 165.923 28.9759 165.937 26.1465V24.8052ZM186.617 29.1494L183.734 32.3125V40H176.707V10.8516H183.734V23.7041L186.176 20.0005L192.462 10.8516H201.151L191.301 23.7441L201.151 40H192.823L186.617 29.1494ZM225.795 10.8516V29.9302C225.795 32.0923 225.334 33.9674 224.414 35.5557C223.493 37.1305 222.171 38.3317 220.45 39.1592C218.728 39.9867 216.693 40.4004 214.344 40.4004C210.794 40.4004 207.998 39.4795 205.956 37.6377C203.914 35.7959 202.873 33.2734 202.833 30.0703V10.8516H209.899V30.2104C209.979 33.4002 211.461 34.9951 214.344 34.9951C215.799 34.9951 216.9 34.5947 217.647 33.7939C218.394 32.9932 218.768 31.6919 218.768 29.8901V10.8516H225.795ZM234.063 33.4536C235.131 33.4536 236.018 33.7739 236.726 34.4146C237.433 35.0418 237.787 35.8493 237.787 36.8369C237.787 37.8245 237.433 38.6387 236.726 39.2793C236.018 39.9066 235.131 40.2202 234.063 40.2202C232.982 40.2202 232.088 39.8999 231.38 39.2593C230.686 38.6187 230.339 37.8112 230.339 36.8369C230.339 35.8626 230.686 35.0552 231.38 34.4146C232.088 33.7739 232.982 33.4536 234.063 33.4536ZM250.099 40H243.092V10.8516H250.099V40ZM254.983 40V10.8516H264.373C266.948 10.8516 269.264 11.4388 271.319 12.6133C273.375 13.7744 274.976 15.4227 276.124 17.5581C277.285 19.6802 277.872 22.0625 277.886 24.7051V26.0464C277.886 28.7157 277.319 31.1113 276.184 33.2334C275.063 35.3421 273.475 36.9971 271.419 38.1982C269.377 39.3861 267.095 39.9867 264.573 40H254.983ZM262.01 16.2769V34.5947H264.453C266.468 34.5947 268.016 33.8807 269.097 32.4526C270.178 31.0112 270.719 28.8758 270.719 26.0464V24.7852C270.719 21.9691 270.178 19.847 269.097 18.4189C268.016 16.9909 266.441 16.2769 264.373 16.2769H262.01Z" fill="white"/>
</svg>
